HIERARCHY
ROOT Hips
{
	OFFSET -0.001795 -0.223333 0.028219
	CHANNELS 6 Xposition Yposition Zposition Zrotation Yrotation Xrotation 
	JOINT LeftUpLeg
	{
		OFFSET 0.069520 -0.091406 -0.006815
		CHANNELS 3 Zrotation Yrotation Xrotation
		JOINT LeftLeg
		{
			OFFSET 0.034277 -0.375199 -0.004496
			CHANNELS 3 Zrotation Yrotation Xrotation
			JOINT LeftFoot
			{
				OFFSET -0.013596 -0.397961 -0.043693
				CHANNELS 3 Zrotation Yrotation Xrotation
				JOINT LeftToe
				{
					OFFSET 0.026358 -0.055791 0.119288
					CHANNELS 3 Zrotation Yrotation Xrotation
					End Site
					{
						OFFSET 0.000000 0.000000 0.000000
					}
				}
			}
		}
	}
	JOINT RightUpLeg
	{
		OFFSET -0.067670 -0.090522 -0.004320
		CHANNELS 3 Zrotation Yrotation Xrotation
		JOINT RightLeg
		{
			OFFSET -0.038290 -0.382569 -0.008850
			CHANNELS 3 Zrotation Yrotation Xrotation
			JOINT RightFoot
			{
				OFFSET 0.015774 -0.398415 -0.042312
				CHANNELS 3 Zrotation Yrotation Xrotation
				JOINT RightToe
				{
					OFFSET -0.025372 -0.048144 0.123348
					CHANNELS 3 Zrotation Yrotation Xrotation
					End Site
					{
						OFFSET 0.000000 0.000000 0.000000
					}
				}
			}
		}
	}
	JOINT Spine
	{
		OFFSET -0.002533 0.108963 -0.026696
		CHANNELS 3 Zrotation Yrotation Xrotation
		JOINT Spine1
		{
			OFFSET 0.005487 0.135180 0.001092
			CHANNELS 3 Zrotation Yrotation Xrotation
			JOINT Spine2
			{
				OFFSET 0.001457 0.052922 0.025425
				CHANNELS 3 Zrotation Yrotation Xrotation
				JOINT Neck
				{
					OFFSET -0.002778 0.213870 -0.042857
					CHANNELS 3 Zrotation Yrotation Xrotation
					JOINT Head
					{
						OFFSET 0.005152 0.064970 0.051349
						CHANNELS 3 Zrotation Yrotation Xrotation
						End Site
						{
							OFFSET 0.000000 0.000000 0.000000
						}
					}
				}
				JOINT LeftShoulder
				{
					OFFSET 0.078845 0.121749 -0.034090
					CHANNELS 3 Zrotation Yrotation Xrotation
					JOINT LeftArm
					{
						OFFSET 0.090977 0.030469 -0.008868
						CHANNELS 3 Zrotation Yrotation Xrotation
						JOINT LeftForeArm
						{
							OFFSET 0.259612 -0.012772 -0.027456
							CHANNELS 3 Zrotation Yrotation Xrotation
							JOINT LeftHand
							{
								OFFSET 0.249234 0.008986 -0.001171
								CHANNELS 3 Zrotation Yrotation Xrotation
								End Site
								{
									OFFSET 0.000000 0.000000 0.000000
								}
							}
						}
					}
				}
				JOINT RightShoulder
				{
					OFFSET -0.081759 0.118833 -0.038615
					CHANNELS 3 Zrotation Yrotation Xrotation
					JOINT RightArm
					{
						OFFSET -0.096012 0.032551 -0.009143
						CHANNELS 3 Zrotation Yrotation Xrotation
						JOINT RightForeArm
						{
							OFFSET -0.253742 -0.013329 -0.021401
							CHANNELS 3 Zrotation Yrotation Xrotation
							JOINT RightHand
							{
								OFFSET -0.255298 0.007772 -0.005559
								CHANNELS 3 Zrotation Yrotation Xrotation
								End Site
								{
									OFFSET 0.000000 0.000000 0.000000
								}
							}
						}
					}
				}
			}
		}
	}
}
MOTION
Frames: 6
Frame Time: 0.050000
0.124286 0.981614 0.169031 -0.028251 6.865971 -9.388394 -1.065771 0.923169 10.747995 1.662873 -0.373727 3.772961 -1.923960 5.583926 20.543374 0.000000 0.000000 0.000000 -3.660544 -0.172718 1.477899 -0.687973 0.702674 20.657605 -2.593380 -10.003444 17.139591 0.000000 0.000000 0.000000 0.591512 -0.602119 11.920817 0.367405 -0.417405 4.320076 0.700015 -7.360113 -5.851986 -9.333450 6.376163 -12.258713 0.000000 0.000000 0.000000 -13.771665 6.431471 -3.924202 -51.521234 9.215008 -9.077301 -21.383831 -33.975260 8.160228 0.000000 0.000000 0.000000 4.930340 -4.254390 -2.313490 58.472490 -10.681865 -10.482391 47.029465 59.973677 27.779124 0.000000 0.000000 0.000000 
0.116003 1.000005 0.171112 -0.358573 6.908513 -8.025733 -0.594983 0.873781 10.661952 2.250058 -0.269059 0.710672 -2.684953 6.308632 26.012633 0.000000 0.000000 0.000000 -2.471210 -0.280039 2.869527 -0.645091 0.574911 15.302022 -2.362123 -10.127658 20.873346 0.000000 0.000000 0.000000 0.860800 -0.532854 10.377836 1.061101 -0.870538 5.198515 0.824691 -7.805531 -7.306578 -9.914046 6.742038 -10.913838 0.000000 0.000000 0.000000 -13.374321 5.283821 -3.303046 -52.344566 11.457614 -9.998197 -23.173242 -34.212871 8.811371 0.000000 0.000000 0.000000 3.882813 -4.615045 -2.252045 59.954013 -11.931998 -11.408090 54.079796 61.519703 32.976286 0.000000 0.000000 0.000000 
0.106347 1.009406 0.172465 -0.523769 6.845314 -7.499185 0.163767 0.760369 10.071073 2.594428 -0.283623 0.326883 -4.437021 4.246976 26.388719 0.000000 0.000000 0.000000 -1.192504 -0.458832 4.503674 -1.249205 0.618558 11.592165 -1.752009 -9.419733 22.621824 0.000000 0.000000 0.000000 0.383848 -0.443804 9.387349 1.405100 -1.124041 5.960089 1.249180 -7.945064 -7.710265 -10.112587 6.830397 -10.999029 0.000000 0.000000 0.000000 -11.830159 4.678418 -2.819291 -53.834906 12.816053 -10.804518 -24.101473 -34.198644 9.135729 0.000000 0.000000 0.000000 2.871907 -4.634654 -2.051783 61.107688 -12.899222 -12.264989 59.697452 62.678435 37.474066 0.000000 0.000000 0.000000 
0.096174 1.000097 0.172627 -0.539333 6.508575 -8.009201 1.121598 0.620072 9.140708 2.438347 -0.486128 3.868006 -3.756657 3.579083 22.058533 0.000000 0.000000 0.000000 -0.526076 -0.588716 5.530978 -1.185404 0.577886 10.606564 -2.229917 -9.990359 21.048997 0.000000 0.000000 0.000000 0.214281 -0.474569 10.184460 1.198543 -1.003894 6.044289 1.186571 -7.765406 -6.822124 -10.654775 7.080241 -12.588819 0.000000 0.000000 0.000000 -11.488989 4.871751 -2.861791 -53.676931 12.350854 -10.645274 -24.552883 -34.985299 9.538226 0.000000 0.000000 0.000000 3.979521 -4.149393 -2.117865 60.789520 -12.698621 -12.092899 61.491115 64.043574 39.843090 0.000000 0.000000 0.000000 
0.086696 0.976449 0.170306 -0.632239 6.254822 -9.281560 2.675805 0.389034 7.025711 1.816791 -0.886079 11.342562 -2.836564 1.840818 14.307191 0.000000 0.000000 0.000000 -0.084397 -0.727978 6.615048 -0.725190 0.520014 11.796350 -3.033635 -10.511404 14.936995 0.000000 0.000000 0.000000 -0.036304 -0.592312 12.702861 1.067907 -0.910597 5.916115 1.119250 -7.079868 -5.868312 -10.778086 7.019742 -15.342183 0.000000 0.000000 0.000000 -12.138897 5.462768 -3.254799 -52.429468 10.865946 -9.889535 -22.882956 -37.684553 9.695086 0.000000 0.000000 0.000000 5.845404 -2.879267 -2.004642 59.125873 -11.814173 -11.151897 57.073361 65.348738 37.904003 0.000000 0.000000 0.000000 
0.080432 0.954964 0.165917 -0.899061 5.718133 -10.117398 3.660204 0.213992 4.336050 1.848867 -1.412904 18.222890 -2.302894 -0.302940 7.910849 0.000000 0.000000 0.000000 0.223450 -0.625396 5.630010 0.456036 0.317770 14.824937 -4.313147 -12.255256 9.052519 0.000000 0.000000 0.000000 0.019177 -0.721957 15.021079 0.616934 -0.736403 7.357678 1.570819 -6.143509 -6.794175 -10.734753 6.872064 -17.084012 0.000000 0.000000 0.000000 -13.393398 6.290578 -3.874122 -50.358327 8.910675 -8.633633 -23.058885 -41.427592 10.727260 0.000000 0.000000 0.000000 8.455370 -2.491228 -2.333521 55.845063 -10.973432 -9.734405 48.038844 64.553519 31.123062 0.000000 0.000000 0.000000 
